# xmcd
#
# Track frame offsets: 
#        150
#        10490
#        23697
#        34015
#        44215
#        55167
#        66375
#        79965
#        88190
#        97615
#        108257
#        118205
#        130375
#        139597
#        148995
#        157477
#        165537
#        177817
#        188602
#        206102
#        219000
#        231695
#        240605
#        255032
#        264575
#
# Disc length: 3742 seconds
#
# Revision: 0
# Processed by: cddbd v1.5.2PL0 Copyright (c) Steve Scherf et al.
# Submitted via: ExactAudioCopyFreeDBPlugin 1.0
#
DISCID=6b0e9c19
DTITLE=Ralph Stanley - 50th Anniversary Collection
DYEAR=1900
DGENRE=Bluegrass
TTITLE0=Little Birdie
TTITLE1=Hemlocks And Primroses
TTITLE2=Old Richmond Prison
TTITLE3=Hard Times
TTITLE4=Children Go Where I Send Thee
TTITLE5=Green Pastures In The Sky
TTITLE6=Flood of '57
TTITLE7=I'll Just Catch A Train And Ride
TTITLE8=Room At The Top Of The Stairs
TTITLE9=Clinch Mountain Backstep
TTITLE10=I'll Wear A White RObe
TTITLE11=Snap A Finger, Jesus
TTITLE12=Hills Of Home
TTITLE13=Bootleg John
TTITLE14=I've Got A Mule To Ride
TTITLE15=Old-Time Pickin'
TTITLE16=Gloryland
TTITLE17=Daniel Prayed
TTITLE18=Beautiful Star Of Bethelhem
TTITLE19=Man Of Constant Sorrow
TTITLE20=Memory Of Your Smile
TTITLE21=Gold Watch And Chain
TTITLE22=I Just Saw The Rock Of Ages
TTITLE23=Travelling The Highway Home
TTITLE24=Little Glass Of Wine
EXTD=
EXTT0=
EXTT1=
EXTT2=
EXTT3=
EXTT4=
EXTT5=
EXTT6=
EXTT7=
EXTT8=
EXTT9=
EXTT10=
EXTT11=
EXTT12=
EXTT13=
EXTT14=
EXTT15=
EXTT16=
EXTT17=
EXTT18=
EXTT19=
EXTT20=
EXTT21=
EXTT22=
EXTT23=
EXTT24=
PLAYORDER=
